<?xml version="1.0" encoding="utf-8"?>
<!-- Generator: Adobe Illustrator 18.1.1, SVG Export Plug-In . SVG Version: 6.00 Build 0)  -->
<svg version="1.1" id="Layer_1" xmlns="http://www.w3.org/2000/svg" xmlns:xlink="http://www.w3.org/1999/xlink" x="0px" y="0px"
	 viewBox="0 0 109 132" style="enable-background:new 0 0 109 132;" xml:space="preserve">
<style type="text/css">
	.st0{fill:#EAEAEA;stroke:#999999;stroke-width:3;stroke-miterlimit:10;}
	.st1{fill:#A3A3A3;}
</style>
<path class="st0" d="M95.5,130.5h-82c-6.6,0-12-5.4-12-12v-105c0-6.6,5.4-12,12-12h82c6.6,0,12,5.4,12,12v105
	C107.5,125.1,102.1,130.5,95.5,130.5z"/>
<g>
	<path class="st1" d="M73.2,52.1l-6.1,5.7l-7.4,7.3l13.5,17.7c0.7,0.9,1,1.8,1,2.6c0,1.1-0.4,2-1.2,2.9s-1.8,1.2-2.8,1.2
		s-2-0.5-2.9-1.5c-2.5-3-7-8.7-13.4-17.1l-8.1,8.3c-1.6,1.5-4,3.8-7.1,6.8c-0.9,1-1.8,1.5-2.9,1.5c-1.1,0-2-0.4-2.8-1.2
		c-0.8-0.8-1.2-1.8-1.2-2.9c0-0.9,0.3-1.7,1-2.6c0.8-1,2-2.3,3.6-3.7c1.9-1.7,3.2-2.8,3.8-3.5l8.8-9.3l-5.4-7.8
		c-2.2-3.1-4.1-5.4-5.7-6.8c-1.1-0.9-1.6-2-1.6-3.1s0.4-2.1,1.2-2.9c0.8-0.9,1.7-1.3,2.7-1.3c1.6,0,4.1,2.1,7.4,6.4l7.2,9.9l8.1-7.5
		c3.4-3.2,5.7-5.7,6.8-7.5c0.9-1.3,1.9-2,3.2-2c1.1,0,2,0.4,2.9,1.2c0.8,0.8,1.2,1.7,1.2,2.8C77,47.4,75.7,49.5,73.2,52.1z"/>
</g>
</svg>
